<?xml version="1.0" encoding="UTF-8"?>
<svg id="Layer_1" data-name="Layer 1" xmlns="http://www.w3.org/2000/svg" viewBox="0 0 76.09 24">
  <defs>
    <style>
      .cls-1 {
        fill: #fff;
      }

      .cls-2 {
        fill: #101b37;
      }
    </style>
  </defs>
  <rect class="cls-2" x=".04" y="0" width="76" height="24"/>
  <g>
    <g>
      <path class="cls-1" d="M14.19,8.58l-.89,1.54c-.54-.41-.97-.59-1.4-.59-.55,0-.9.26-.9.7,0,.38.2.58,1.02.96,1.32.62,1.77,1.19,1.77,2.24,0,1.61-1.27,2.73-3.05,2.73-.96,0-1.63-.22-2.69-.88l.91-1.54c.72.49,1.14.66,1.69.66.63,0,1.07-.32,1.07-.82,0-.35-.18-.54-.93-.91-1.43-.72-1.84-1.24-1.84-2.31,0-1.45,1.25-2.52,2.93-2.52.81,0,1.55.23,2.32.73Z"/>
      <path class="cls-1" d="M23.48,11.6v.16c0,2.63-1.75,4.4-4.34,4.4s-4.36-1.63-4.36-4.04,1.87-4.27,4.52-4.27c2.42,0,4.08,1.49,4.18,3.75ZM21.39,11.83c-.07-1.26-.92-2.06-2.18-2.06-1.37,0-2.36.96-2.36,2.28s.9,2.2,2.24,2.2,2.31-.92,2.31-2.27c0-.05,0-.1-.01-.14Z"/>
      <path class="cls-1" d="M27.34,8l-.77,6.24h2.55l-.23,1.76h-4.56l.98-8h2.02Z"/>
      <path class="cls-1" d="M42.48,8l-.22,1.76h-2.35l-.17,1.33h2.28l-.22,1.75h-2.28l-.17,1.39h2.44l-.22,1.76h-4.47l.98-8h4.37Z"/>
      <path class="cls-1" d="M48.84,8.58l-.89,1.54c-.54-.41-.97-.59-1.4-.59-.55,0-.9.26-.9.7,0,.38.2.58,1.02.96,1.32.62,1.77,1.19,1.77,2.24,0,1.61-1.27,2.73-3.05,2.73-.96,0-1.63-.22-2.69-.88l.91-1.54c.72.49,1.14.66,1.69.66.63,0,1.07-.32,1.07-.82,0-.35-.18-.54-.93-.91-1.43-.72-1.84-1.24-1.84-2.31,0-1.45,1.25-2.52,2.93-2.52.82,0,1.55.23,2.32.73Z"/>
      <path class="cls-1" d="M60.67,8l-.77,6.24h2.55l-.23,1.76h-4.56l.98-8h2.02Z"/>
      <path class="cls-1" d="M66.26,8l-.77,6.24h2.55l-.23,1.76h-4.56l.98-8h2.02Z"/>
    </g>
    <polygon class="cls-1" points="37.21 8 33.37 16 31.21 16 29.58 9.77 31.74 9.77 32.59 13.03 34.94 8 37.21 8"/>
    <path class="cls-1" d="M55.18,9.77l-.46-1.77h-2.31l-3.72,8h2.16l.64-1.33h2.82l.35,1.33h2.16l-1.63-6.23ZM52.25,13.07l1.06-2.2.57,2.2h-1.63Z"/>
  </g>
</svg>