<svg xmlns="http://www.w3.org/2000/svg" width="172" height="55.421" viewBox="0 0 172 55.421">
  <g id="Group_1330" data-name="Group 1330" transform="translate(3919.038 9606.761)">
    <g id="Group_1327" data-name="Group 1327" transform="translate(-3919.038 -9606.761)">
      <path id="Path_5761" data-name="Path 5761" d="M-22.626-8.411A18.645,18.645,0,0,1-24.672.1q-.131.257-.268.508c-.1.192-.211.38-.323.567-.048.085-.1.172-.153.256-.131.213-.268.423-.408.631-.08.119-.163.238-.245.357-.1.142-.2.281-.3.419a18.862,18.862,0,0,1-13.74,7.528V4.732c0-.27-.009-.54-.03-.806h.03V-5.861a8.972,8.972,0,0,1,1.095-4.307c.06-.11.121-.217.188-.322a9.058,9.058,0,0,1,7.777-4.415h7.271a.54.54,0,0,1,.018.055,18.7,18.7,0,0,1,1.136,6.439" transform="translate(61.918 28.88)" fill="#51bc49"/>
      <path id="Path_5759" data-name="Path 5759" d="M-22.558,0V24.508c-.011-.012-.021-.025-.032-.037a11.535,11.535,0,0,0-8.76-4.025H-40q-.072-.807-.071-1.635a18.732,18.732,0,0,1,2.51-9.391c.073-.126.147-.25.222-.374l.055-.089A18.905,18.905,0,0,1-22.59,0l.032,0" transform="translate(42.399 2.151)" fill="#b0d243"/>
      <path id="Path_5760" data-name="Path 5760" d="M-21.873-11.329v5.654l-.032,0A18.942,18.942,0,0,1-38.873-20.063l-.014-.055h8.212a8.809,8.809,0,0,1,8.77,8.037v0c.021.248.032.5.032.75" transform="translate(41.714 44.738)" fill="#2a9d41"/>
      <path id="Path_5749" data-name="Path 5749" d="M-19.357-12.3h-6.03A11.863,11.863,0,0,0-34.5-8.045V-21.9a19,19,0,0,1,15.141,9.6" transform="translate(56.275 24.289)" fill="#87c846"/>
      <path id="Path_5755" data-name="Path 5755" d="M-49.6-68.911h-13.77v-8.251A20.791,20.791,0,0,0-43.91-97.874a20.793,20.793,0,0,0-20.784-20.755A20.794,20.794,0,0,0-85.48-97.874,20.791,20.791,0,0,0-66.016-77.162v8.251h-13.77a1.166,1.166,0,0,0-1.168,1.164v2.938a1.166,1.166,0,0,0,1.168,1.166H-49.6a1.166,1.166,0,0,0,1.166-1.166v-2.938A1.165,1.165,0,0,0-49.6-68.911m1.988-35.209a17.987,17.987,0,0,1,1.093,6.194,17.934,17.934,0,0,1-1.968,8.192q-.125.248-.258.489c-.1.185-.2.365-.311.545-.046.082-.1.165-.148.247-.126.2-.258.407-.392.607-.075.116-.152.231-.235.343-.095.136-.194.27-.291.4a18.112,18.112,0,0,1-13.248,7.294V-85.23c0-.26-.009-.519-.029-.775h.029v-9.413a8.612,8.612,0,0,1,1.084-4.2c.057-.106.117-.209.18-.31a8.715,8.715,0,0,1,7.481-4.246h6.994a.526.526,0,0,1,.018.053m-1.278-2.641h-5.767a11.345,11.345,0,0,0-8.713,4.073V-115.94a18.167,18.167,0,0,1,14.479,9.179m-33.943,8.887a17.982,17.982,0,0,1,2.444-9.072c.068-.121.141-.24.214-.359l.053-.086a18.158,18.158,0,0,1,14.109-8.6l.031,0v23.539c-.011-.011-.02-.024-.031-.035v.093A11.074,11.074,0,0,0-74.462-96.3h-8.305q-.069-.779-.068-1.571m.5,4.212h.046l-.013-.053h7.877A8.45,8.45,0,0,1-66.016-86v0c.02.238.031.477.031.72v5.424l-.031,0v.055A18.169,18.169,0,0,1-82.34-93.662" transform="translate(85.48 118.629)" fill="#58585b"/>
      <path id="Path_5763" data-name="Path 5763" d="M44.586-7.476H40.179v-.777h4.407Zm-7.325,0H32.854v-.777h4.407Zm-7.325,0H25.529v-.777h4.407Zm-7.325,0H18.629v-.777h3.982Z" transform="translate(-10.81 60.216)" fill="#e3e0d1"/>
    </g>
    <path id="Union_54" data-name="Union 54" d="M101.1,50.3a6.289,6.289,0,0,1-4.642-1.6,6.269,6.269,0,0,1-1.607-4.635V34.289a6.269,6.269,0,0,1,1.607-4.635,6.289,6.289,0,0,1,4.642-1.6h.357a6.289,6.289,0,0,1,4.642,1.6,6.269,6.269,0,0,1,1.607,4.635v9.775A6.269,6.269,0,0,1,106.1,48.7a6.289,6.289,0,0,1-4.642,1.6Zm-1.458-18a2.091,2.091,0,0,0-.536,1.545V44.51a1.873,1.873,0,0,0,2.083,2.08h.179a1.873,1.873,0,0,0,2.083-2.08V33.844a1.873,1.873,0,0,0-2.083-2.08h-.179A2.1,2.1,0,0,0,99.646,32.3Zm-33.5,17.708V41.6H61.8v8.408H57.544V34.289a6.271,6.271,0,0,1,1.606-4.635,6.292,6.292,0,0,1,4.642-1.6h.357a6.289,6.289,0,0,1,4.641,1.6A6.268,6.268,0,0,1,70.4,34.289V50.006ZM62.335,32.3a2.09,2.09,0,0,0-.536,1.545v3.892h4.344V33.843a1.872,1.872,0,0,0-2.083-2.079h-.179A2.1,2.1,0,0,0,62.335,32.3ZM51.921,50.006V33.843a1.873,1.873,0,0,0-2.083-2.08h-.179a1.873,1.873,0,0,0-2.083,2.08V50.006H43.322V34.289a6.269,6.269,0,0,1,1.607-4.635,6.29,6.29,0,0,1,4.642-1.6h.357a6.291,6.291,0,0,1,4.642,1.6,6.269,6.269,0,0,1,1.607,4.635V50.006Zm-14.312,0V44.658a2.749,2.749,0,0,0-.625-2.065,3.079,3.079,0,0,0-2.112-.579h-1.9v7.992H28.713V28.347h6.843a7.631,7.631,0,0,1,4.791,1.218,4.513,4.513,0,0,1,1.517,3.743v2.08a4.158,4.158,0,0,1-.878,2.6,5.111,5.111,0,0,1-2.276,1.679q3.153.891,3.154,4.516v5.824ZM32.968,38.33h1.666a3.791,3.791,0,0,0,2.172-.55,1.957,1.957,0,0,0,.8-1.738V34.259a2.35,2.35,0,0,0-.521-1.709,2.261,2.261,0,0,0-1.651-.52H32.968ZM22.911,50.006V41.6H18.567v8.408H14.312V34.289a6.27,6.27,0,0,1,1.607-4.635,6.29,6.29,0,0,1,4.642-1.6h.357a6.289,6.289,0,0,1,4.642,1.6,6.27,6.27,0,0,1,1.607,4.635V50.006ZM19.1,32.3a2.089,2.089,0,0,0-.536,1.545v3.892h4.344V33.843a1.873,1.873,0,0,0-2.083-2.079h-.179A2.1,2.1,0,0,0,19.1,32.3Zm93.962,17.678V32.031h-4.433V28.347h13.151v3.684H117.32V49.977Zm-108.988,0L0,28.347H4.284l2.8,16.787h.059l2.8-16.787h3.9L9.729,49.977Zm76.735,0V28.347h6.814a7.629,7.629,0,0,1,4.79,1.218,4.513,4.513,0,0,1,1.518,3.744v3.744A4.511,4.511,0,0,1,92.415,40.8a7.624,7.624,0,0,1-4.79,1.218H85.066v7.962Zm4.255-11.647h2.44a2.264,2.264,0,0,0,1.652-.519,2.35,2.35,0,0,0,.521-1.708V34.259a2.351,2.351,0,0,0-.521-1.708,2.265,2.265,0,0,0-1.652-.52h-2.44ZM48.23,22.253a6.29,6.29,0,0,1-4.641-1.6,6.269,6.269,0,0,1-1.607-4.635V6.239A6.269,6.269,0,0,1,43.588,1.6,6.288,6.288,0,0,1,48.23,0h.357a6.291,6.291,0,0,1,4.642,1.6,6.27,6.27,0,0,1,1.607,4.635v9.775a6.271,6.271,0,0,1-1.607,4.635,6.292,6.292,0,0,1-4.642,1.6Zm-1.458-18a2.092,2.092,0,0,0-.535,1.545V16.46a1.872,1.872,0,0,0,2.083,2.08H48.5a1.873,1.873,0,0,0,2.083-2.08V5.794a2.091,2.091,0,0,0-.536-1.545A2.1,2.1,0,0,0,48.5,3.713h-.178A2.1,2.1,0,0,0,46.772,4.248Zm9.522,17.708V.3h4.374q4.076,0,6.2,2.124T69,8.616v5.021a8.4,8.4,0,0,1-2.127,6.18q-2.128,2.139-6.2,2.139Zm4.225-3.714H60.7a4.142,4.142,0,0,0,3.079-1.069,4.311,4.311,0,0,0,1.086-3.09V8.17a4.313,4.313,0,0,0-1.086-3.09A4.142,4.142,0,0,0,60.7,4.011h-.179ZM23.058,21.956V13.548H18.714v8.408H14.459V6.239A6.268,6.268,0,0,1,16.066,1.6,6.289,6.289,0,0,1,20.707,0h.357a6.289,6.289,0,0,1,4.642,1.6,6.27,6.27,0,0,1,1.607,4.635V21.956ZM19.249,4.249a2.089,2.089,0,0,0-.536,1.545V9.686h4.344V5.793a2.092,2.092,0,0,0-.536-1.545,2.1,2.1,0,0,0-1.547-.535H20.8A2.1,2.1,0,0,0,19.249,4.249ZM31.865,21.926,27.789.3h4.284l2.8,16.786h.059L37.727.3h3.9L37.518,21.926Zm-31.331,0V18.9L8.419,3.981H.534V.3H12.972V3.328L5.086,18.242h7.885v3.684Z" transform="translate(-3868.82 -9601.643)" fill="#58585b"/>
  </g>
</svg>
